<svg width="25" height="25" viewBox="0 0 25 25" fill="none" xmlns="http://www.w3.org/2000/svg">
<path d="M5.61533 0.75V3.6692M19.2383 0.75V3.6692M0.75 21.1844V6.5884C0.75 4.97617 2.05697 3.6692 3.6692 3.6692H21.1844C22.7966 3.6692 24.1036 4.97617 24.1036 6.5884V21.1844M0.75 21.1844C0.75 22.7966 2.05697 24.1036 3.6692 24.1036H21.1844C22.7966 24.1036 24.1036 22.7966 24.1036 21.1844M0.75 21.1844V11.4537C0.75 9.84151 2.05697 8.53453 3.6692 8.53453H21.1844C22.7966 8.53453 24.1036 9.84151 24.1036 11.4537V21.1844M12.4268 13.3999H12.4365V13.4096H12.4268V13.3999ZM12.4268 16.3191H12.4365V16.3288H12.4268V16.3191ZM12.4268 19.2383H12.4365V19.248H12.4268V19.2383ZM9.5076 16.3191H9.51733V16.3288H9.5076V16.3191ZM9.5076 19.2383H9.51733V19.248H9.5076V19.2383ZM6.5884 16.3191H6.59813V16.3288H6.5884V16.3191ZM6.5884 19.2383H6.59813V19.248H6.5884V19.2383ZM15.346 13.3999H15.3557V13.4096H15.346V13.3999ZM15.346 16.3191H15.3557V16.3288H15.346V16.3191ZM15.346 19.2383H15.3557V19.248H15.346V19.2383ZM18.2652 13.3999H18.2749V13.4096H18.2652V13.3999ZM18.2652 16.3191H18.2749V16.3288H18.2652V16.3191Z" stroke="#0F172A" stroke-width="1.5" stroke-linecap="round" stroke-linejoin="round"/>
</svg>
