<svg width="27" height="25" viewBox="0 0 27 25" fill="none" xmlns="http://www.w3.org/2000/svg">
<path d="M11.8557 18.7129C10.9638 18.2322 10.3737 17.2675 10.3737 16.1811V10.6211C10.3737 9.14851 11.458 7.89899 12.9094 7.77719C14.6118 7.63433 16.3338 7.56147 18.0727 7.56147C19.8116 7.56147 21.5337 7.63433 23.2361 7.7772C23.4483 7.79501 23.6527 7.83693 23.847 7.90014C24.9814 8.26919 25.7717 9.36385 25.7717 10.6211V16.1813C25.7717 17.656 24.6844 18.9065 23.2307 19.0264C22.7958 19.0623 22.3596 19.0937 21.9222 19.1205V23.1305L18.0727 19.2383C16.3357 19.2383 14.6154 19.1667 12.9147 19.0263C12.5319 18.9947 12.1745 18.8847 11.8557 18.7129ZM23.847 7.90014V5.46913C23.847 3.36546 22.3691 1.54227 20.3059 1.27145C17.685 0.927432 15.0124 0.75 12.2989 0.75C9.58502 0.75 6.91218 0.927467 4.29107 1.27155C2.22786 1.54239 0.75 3.36558 0.75 5.46922V13.546C0.75 15.6497 2.22786 17.4728 4.29108 17.7437C5.03142 17.8409 5.77589 17.9248 6.52424 17.9951V24.1036L11.8557 18.7129" stroke="#0F172A" stroke-width="1.5" stroke-linecap="round" stroke-linejoin="round"/>
</svg>
