<svg width="25" height="25" viewBox="0 0 25 25" fill="none" xmlns="http://www.w3.org/2000/svg">
<path d="M0.75 3.93458C0.75 3.08998 1.08552 2.27997 1.68274 1.68274C2.27997 1.08552 3.08998 0.75 3.93458 0.75H7.11916C7.96377 0.75 8.77378 1.08552 9.371 1.68274C9.96823 2.27997 10.3037 3.08998 10.3037 3.93458V7.11916C10.3037 7.96377 9.96823 8.77378 9.371 9.371C8.77378 9.96823 7.96377 10.3037 7.11916 10.3037H3.93458C3.08998 10.3037 2.27997 9.96823 1.68274 9.371C1.08552 8.77378 0.75 7.96377 0.75 7.11916V3.93458ZM0.75 17.7344C0.75 16.8898 1.08552 16.0798 1.68274 15.4826C2.27997 14.8854 3.08998 14.5499 3.93458 14.5499H7.11916C7.96377 14.5499 8.77378 14.8854 9.371 15.4826C9.96823 16.0798 10.3037 16.8898 10.3037 17.7344V20.919C10.3037 21.7636 9.96823 22.5736 9.371 23.1709C8.77378 23.7681 7.96377 24.1036 7.11916 24.1036H3.93458C3.08998 24.1036 2.27997 23.7681 1.68274 23.1709C1.08552 22.5736 0.75 21.7636 0.75 20.919V17.7344ZM14.5499 3.93458C14.5499 3.08998 14.8854 2.27997 15.4826 1.68274C16.0798 1.08552 16.8898 0.75 17.7344 0.75H20.919C21.7636 0.75 22.5736 1.08552 23.1709 1.68274C23.7681 2.27997 24.1036 3.08998 24.1036 3.93458V7.11916C24.1036 7.96377 23.7681 8.77378 23.1709 9.371C22.5736 9.96823 21.7636 10.3037 20.919 10.3037H17.7344C16.8898 10.3037 16.0798 9.96823 15.4826 9.371C14.8854 8.77378 14.5499 7.96377 14.5499 7.11916V3.93458ZM14.5499 17.7344C14.5499 16.8898 14.8854 16.0798 15.4826 15.4826C16.0798 14.8854 16.8898 14.5499 17.7344 14.5499H20.919C21.7636 14.5499 22.5736 14.8854 23.1709 15.4826C23.7681 16.0798 24.1036 16.8898 24.1036 17.7344V20.919C24.1036 21.7636 23.7681 22.5736 23.1709 23.1709C22.5736 23.7681 21.7636 24.1036 20.919 24.1036H17.7344C16.8898 24.1036 16.0798 23.7681 15.4826 23.1709C14.8854 22.5736 14.5499 21.7636 14.5499 20.919V17.7344Z" stroke="black" stroke-width="1.5" stroke-linecap="round" stroke-linejoin="round"/>
</svg>
