<svg width="461" height="276" viewBox="0 0 461 276" fill="none" xmlns="http://www.w3.org/2000/svg">
<mask id="path-1-inside-1_66_37" fill="white">
<path d="M461 268C461 272.418 457.418 276 453 276H8C3.58173 276 0 272.418 0 268V18C1.03084e-06 13.5817 3.58172 10 8 10H306L325.368 0.777344C326.443 0.265724 327.618 4.53881e-06 328.808 0H453C457.418 0 461 3.58172 461 8V268Z"/>
</mask>
<path d="M461 268C461 272.418 457.418 276 453 276H8C3.58173 276 0 272.418 0 268V18C1.03084e-06 13.5817 3.58172 10 8 10H306L325.368 0.777344C326.443 0.265724 327.618 4.53881e-06 328.808 0H453C457.418 0 461 3.58172 461 8V268Z" fill="#F7F8FF" fill-opacity="0.68"/>
<path d="M8 276L8 277H8V276ZM0 18H-1V18H0ZM306 10V11H306.226L306.43 10.9029L306 10ZM325.368 0.777344L325.798 1.68021V1.68021L325.368 0.777344ZM328.808 0V-1V-1V0ZM461 268H460C460 271.866 456.866 275 453 275V276V277C457.971 277 462 272.971 462 268H461ZM453 276V275H8V276V277H453V276ZM8 276L8 275C4.13401 275 1 271.866 1 268H0H-1C-1 272.971 3.02944 277 8 277L8 276ZM0 268H1V18H0H-1V268H0ZM0 18H1C1 14.134 4.13401 11 8 11V10V9C3.02944 9 -0.999999 13.0294 -1 18H0ZM8 10V11H306V10V9H8V10ZM306 10L306.43 10.9029L325.798 1.68021L325.368 0.777344L324.938 -0.125522L305.57 9.09713L306 10ZM325.368 0.777344L325.798 1.68021C326.738 1.23248 327.767 1 328.808 1V0V-1C327.469 -0.999995 326.147 -0.701034 324.938 -0.125518L325.368 0.777344ZM328.808 0V1H453V0V-1H328.808V0ZM453 0V1C456.866 1 460 4.13401 460 8H461H462C462 3.02944 457.971 -1 453 -1V0ZM461 8H460V268H461H462V8H461Z" fill="white" fill-opacity="0.58" mask="url(#path-1-inside-1_66_37)"/>
</svg>
