<svg width="25" height="29" viewBox="0 0 25 29" fill="none" xmlns="http://www.w3.org/2000/svg">
<path d="M8.18069 14.0949H13.4883M8.18069 18.201H13.4883M8.18069 22.3072H13.4883M17.7344 23.3337H20.919C22.6778 23.3337 24.1036 21.9549 24.1036 20.2541V6.03078C24.1036 4.47732 22.9076 3.15914 21.3067 3.03064C20.7784 2.98824 20.2483 2.95168 19.7166 2.92104M19.7166 2.92104C19.3158 1.66371 18.1047 0.75 16.6729 0.75H14.5499C13.1181 0.75 11.907 1.66371 11.5061 2.92104C11.4146 3.20823 11.3653 3.51334 11.3653 3.8296C11.3653 4.39653 11.8405 4.85613 12.4268 4.85613H18.796C19.3822 4.85613 19.8575 4.39653 19.8575 3.8296C19.8575 3.51334 19.8082 3.20823 19.7166 2.92104ZM11.5061 2.92104C10.9744 2.95168 10.4444 2.98824 9.91606 3.03064C8.31514 3.15914 7.11916 4.47732 7.11916 6.03078V8.96226M7.11916 8.96226H2.34229C1.46289 8.96226 0.75 9.65165 0.75 10.5021V25.9C0.75 26.7504 1.46289 27.4398 2.34229 27.4398H16.1421C17.0215 27.4398 17.7344 26.7504 17.7344 25.9V10.5021C17.7344 9.65165 17.0215 8.96226 16.1421 8.96226H7.11916ZM4.99611 14.0949H5.00673V14.1052H4.99611V14.0949ZM4.99611 18.201H5.00673V18.2113H4.99611V18.201ZM4.99611 22.3072H5.00673V22.3174H4.99611V22.3072Z" stroke="#0F172A" stroke-width="1.5" stroke-linecap="round" stroke-linejoin="round"/>
</svg>
