<svg width="57" height="57" viewBox="0 0 57 57" fill="none" xmlns="http://www.w3.org/2000/svg">
<circle cx="28.358" cy="28.358" r="27.858" fill="white" stroke="white"/>
<path d="M27.2455 27.246L27.3063 27.2164C27.4965 27.1214 27.7098 27.0829 27.9212 27.1054C28.1325 27.1279 28.333 27.2105 28.4988 27.3435C28.6647 27.4764 28.789 27.6541 28.857 27.8554C28.925 28.0568 28.9338 28.2734 28.8825 28.4797L27.8327 32.6848C27.781 32.8912 27.7896 33.108 27.8575 33.3096C27.9253 33.5113 28.0496 33.6892 28.2155 33.8223C28.3814 33.9555 28.582 34.0382 28.7935 34.0608C29.0051 34.0834 29.2186 34.0448 29.4089 33.9496L29.4697 33.9185M41.7025 28.3581C41.7025 30.1106 41.3574 31.8459 40.6867 33.465C40.0161 35.0841 39.0331 36.5552 37.7939 37.7944C36.5547 39.0336 35.0836 40.0166 33.4645 40.6872C31.8454 41.3578 30.1101 41.703 28.3576 41.703C26.6051 41.703 24.8698 41.3578 23.2507 40.6872C21.6317 40.0166 20.1605 39.0336 18.9213 37.7944C17.6821 36.5552 16.6992 35.0841 16.0285 33.465C15.3579 31.8459 15.0127 30.1106 15.0127 28.3581C15.0127 24.8188 16.4187 21.4245 18.9213 18.9218C21.424 16.4192 24.8183 15.0132 28.3576 15.0132C31.8969 15.0132 35.2912 16.4192 37.7939 18.9218C40.2965 21.4245 41.7025 24.8188 41.7025 28.3581ZM28.3576 22.7977H28.3695V22.8096H28.3576V22.7977Z" stroke="black" stroke-width="1.5" stroke-linecap="round" stroke-linejoin="round"/>
</svg>
