<svg width="57" height="57" viewBox="0 0 57 57" fill="none" xmlns="http://www.w3.org/2000/svg">
<circle cx="28.358" cy="28.358" r="27.858" fill="white" stroke="white"/>
<path d="M24.0626 35.8932C25.4711 36.0579 26.9044 36.1426 28.3578 36.1426C29.8114 36.1426 31.2449 36.0579 32.6535 35.8931C35.5021 35.5599 38.249 34.8994 40.8544 33.9509C38.6941 31.5861 37.3791 28.4554 37.3791 25.0219V23.9827C37.3793 23.9584 37.3794 23.9341 37.3794 23.9098C37.3794 18.9963 33.3405 15.0132 28.3581 15.0132C23.3758 15.0132 19.3368 18.9963 19.3368 23.9098L19.3365 25.0219C19.3365 28.4554 18.0216 31.5861 15.8612 33.9509C18.4668 34.8995 21.2138 35.56 24.0626 35.8932ZM32.6535 35.8931C32.7933 36.3222 32.8688 36.7798 32.8688 37.2547C32.8688 39.7114 30.8493 41.703 28.3581 41.703C25.8669 41.703 23.8474 39.7114 23.8474 37.2547C23.8474 36.7798 23.9229 36.3223 24.0626 35.8932M15.0132 21.6856C15.4451 19.1466 16.6041 16.8507 18.2718 15.0132M38.4444 15.0132C40.1121 16.8507 41.2711 19.1466 41.703 21.6856" stroke="#0F172A" stroke-width="1.5" stroke-linecap="round" stroke-linejoin="round"/>
</svg>
