<svg version="1.1" xmlns="http://www.w3.org/2000/svg" style="display: block;" viewBox="0 0 2048 1779" width="1019" height="885" preserveAspectRatio="none">
<path transform="translate(0,0)" fill="rgb(237,237,238)" d="M 82.4262 7.43599 C 89.5362 5.59717 131.942 6.83576 141.854 6.85025 L 255.518 6.82515 L 465.128 6.65253 C 499.532 6.79295 570.624 4.26393 600.637 12.8446 C 653.626 27.9942 697.692 89.441 757.564 94.8335 C 782.692 97.0968 808.59 96.3161 833.852 96.2968 L 950.781 96.7581 L 1447.85 96.2166 L 1814.51 96.1004 C 1852.85 95.7966 1891.2 95.9782 1929.53 96.6452 C 1946.24 96.8438 1964.83 96.0468 1981.24 97.9736 C 2004.53 100.708 2028.05 116.657 2035.68 139.391 C 2039.91 151.973 2041.47 165.455 2041.77 178.744 C 2042.12 215.311 2041.96 251.948 2041.96 288.513 L 2041.97 492.142 L 2041.99 1109.18 L 2042.04 1509.57 L 2042.08 1635.91 C 2042.09 1658.89 2042.48 1682.99 2041.51 1705.9 C 2040.8 1722.7 2034.28 1738.61 2022.5 1750.78 C 2001.44 1772.52 1973.38 1772.41 1945.25 1773.01 C 1896.25 1774.28 1845.96 1773.32 1796.75 1773.36 L 1524.87 1773.47 L 789.243 1773.6 L 319.168 1773.75 L 159.595 1773.43 C 134.001 1773.31 108.833 1773.55 82.8916 1772.91 C 46.5295 1772 14.6702 1744.5 12.3588 1707.48 C 10.6483 1680.08 11.7174 1650.26 11.7148 1622.51 L 11.4685 1462.1 L 11.3748 911.919 L 11.1334 352.398 L 11.6158 166.091 C 11.8071 136.533 10.9812 106.328 12.4053 76.8565 C 14.5082 33.3338 41.01 10.7774 82.4262 7.43599 z"/>
</svg>