<svg width="24" height="24" viewBox="0 0 24 24" fill="none" xmlns="http://www.w3.org/2000/svg">
<path fill-rule="evenodd" clip-rule="evenodd" d="M19.4613 1.79643C20.5362 1.79643 21.4075 2.60072 21.4075 3.59286V19.7607C21.4075 20.7529 20.5362 21.5572 19.4613 21.5572H11.6768C10.602 21.5572 9.73067 20.7529 9.73067 19.7607V15.2697C9.73067 14.7736 9.29501 14.3714 8.7576 14.3714C8.22019 14.3714 7.78454 14.7736 7.78454 15.2697V19.7607C7.78454 21.745 9.52716 23.3536 11.6768 23.3536H19.4613C21.611 23.3536 23.3536 21.745 23.3536 19.7607V3.59286C23.3536 1.60858 21.611 -1.07076e-07 19.4613 0L11.6768 3.21227e-07C9.52716 3.74765e-07 7.78453 1.60858 7.78453 3.59286V8.08394C7.78453 8.58001 8.22019 8.98216 8.7576 8.98216C9.29501 8.98216 9.73067 8.58001 9.73067 8.08394V3.59286C9.73067 2.60072 10.602 1.79643 11.6768 1.79643L19.4613 1.79643ZM5.55339 7.44881C5.17339 7.09803 4.55728 7.09803 4.17727 7.44881L0.285004 11.0417C-0.0950015 11.3924 -0.0950015 11.9612 0.285004 12.3119L4.17727 15.9048C4.55728 16.2556 5.17339 16.2556 5.5534 15.9048C5.9334 15.554 5.9334 14.9853 5.5534 14.6345L3.32226 12.575L17.5152 12.575C18.0526 12.575 18.4883 12.1729 18.4883 11.6768C18.4883 11.1807 18.0526 10.7786 17.5152 10.7786L3.32226 10.7786L5.5534 8.71908C5.9334 8.3683 5.9334 7.79958 5.55339 7.44881Z" fill="#0F172A"/>
</svg>
