<svg width="129" height="21" viewBox="0 0 129 21" fill="none" xmlns="http://www.w3.org/2000/svg">
<path d="M10.0625 5.09104V9.06831H0V5.09104H10.0625ZM1.94886 1.43195H7.4375V15.4518C7.4375 15.664 7.47396 15.8429 7.54688 15.9888C7.61979 16.128 7.73248 16.234 7.88494 16.307C8.03741 16.3732 8.23295 16.4064 8.47159 16.4064C8.63731 16.4064 8.82955 16.3865 9.0483 16.3467C9.27367 16.307 9.43939 16.2738 9.54545 16.2473L10.3409 20.1052C10.0956 20.1782 9.74432 20.2677 9.28693 20.3737C8.83617 20.4798 8.29924 20.5494 7.67614 20.5825C6.41667 20.6488 5.35938 20.5195 4.50426 20.1947C3.64915 19.8633 3.00616 19.3429 2.57528 18.6337C2.14441 17.9244 1.93561 17.0361 1.94886 15.9689V1.43195ZM22.2056 13.682V5.09104H27.6942V20.3638H22.484V17.4604H22.3249C21.9935 18.4348 21.4135 19.1971 20.5849 19.7473C19.7563 20.2909 18.7719 20.5626 17.6317 20.5626C16.5645 20.5626 15.6299 20.3174 14.8278 19.8268C14.0323 19.3363 13.4125 18.6602 12.9684 17.7984C12.5309 16.9367 12.3088 15.949 12.3022 14.8354V5.09104H17.7908V13.682C17.7975 14.4376 17.9897 15.0309 18.3675 15.4618C18.752 15.8927 19.2889 16.1081 19.9783 16.1081C20.4357 16.1081 20.8301 16.012 21.1616 15.8197C21.4996 15.6209 21.7582 15.3425 21.9371 14.9845C22.1228 14.6199 22.2122 14.1857 22.2056 13.682ZM39.5938 5.09104V9.06831H29.5312V5.09104H39.5938ZM31.4801 1.43195H36.9688V15.4518C36.9688 15.664 37.0052 15.8429 37.0781 15.9888C37.151 16.128 37.2637 16.234 37.4162 16.307C37.5687 16.3732 37.7642 16.4064 38.0028 16.4064C38.1686 16.4064 38.3608 16.3865 38.5795 16.3467C38.8049 16.307 38.9706 16.2738 39.0767 16.2473L39.8722 20.1052C39.6269 20.1782 39.2756 20.2677 38.8182 20.3737C38.3674 20.4798 37.8305 20.5494 37.2074 20.5825C35.9479 20.6488 34.8906 20.5195 34.0355 20.1947C33.1804 19.8633 32.5374 19.3429 32.1065 18.6337C31.6757 17.9244 31.4669 17.0361 31.4801 15.9689V1.43195ZM49.0273 20.6422C47.3701 20.6422 45.9516 20.3141 44.7717 19.6578C43.5917 18.9949 42.6869 18.0735 42.0572 16.8936C41.4274 15.707 41.1126 14.3316 41.1126 12.7672C41.1126 11.2028 41.4274 9.83063 42.0572 8.6507C42.6869 7.46415 43.5917 6.54275 44.7717 5.8865C45.9516 5.22362 47.3701 4.89218 49.0273 4.89218C50.6845 4.89218 52.1031 5.22362 53.283 5.8865C54.463 6.54275 55.3678 7.46415 55.9975 8.6507C56.6273 9.83063 56.9421 11.2028 56.9421 12.7672C56.9421 14.3316 56.6273 15.707 55.9975 16.8936C55.3678 18.0735 54.463 18.9949 53.283 19.6578C52.1031 20.3141 50.6845 20.6422 49.0273 20.6422ZM49.0671 16.5854C49.5311 16.5854 49.9322 16.4296 50.2702 16.118C50.6083 15.8065 50.8701 15.3623 51.0558 14.7856C51.2414 14.2089 51.3342 13.5229 51.3342 12.7274C51.3342 11.9253 51.2414 11.2392 51.0558 10.6692C50.8701 10.0925 50.6083 9.64833 50.2702 9.33678C49.9322 9.02523 49.5311 8.86945 49.0671 8.86945C48.5766 8.86945 48.1557 9.02523 47.8043 9.33678C47.453 9.64833 47.1845 10.0925 46.9989 10.6692C46.8133 11.2392 46.7205 11.9253 46.7205 12.7274C46.7205 13.5229 46.8133 14.2089 46.9989 14.7856C47.1845 15.3623 47.453 15.8065 47.8043 16.118C48.1557 16.4296 48.5766 16.5854 49.0671 16.5854ZM59.1694 20.3638V5.09104H64.4989V7.99445H64.658C64.9364 6.92059 65.3772 6.13508 65.9805 5.63792C66.5903 5.14076 67.3029 4.89218 68.1183 4.89218C68.3569 4.89218 68.5922 4.91207 68.8242 4.95184C69.0629 4.98498 69.2915 5.0347 69.5103 5.10099V9.78422C69.2385 9.69142 68.9038 9.62182 68.506 9.57542C68.1083 9.52902 67.7669 9.50581 67.4819 9.50581C66.945 9.50581 66.4611 9.62845 66.0302 9.87371C65.6059 10.1123 65.2712 10.4504 65.0259 10.8879C64.7807 11.3188 64.658 11.8259 64.658 12.4092V20.3638H59.1694ZM72.543 20.682C71.774 20.682 71.1145 20.4135 70.5643 19.8766C70.0207 19.333 69.7522 18.6734 69.7589 17.8979C69.7522 17.1422 70.0207 16.4959 70.5643 15.9589C71.1145 15.422 71.774 15.1535 72.543 15.1535C73.2721 15.1535 73.9151 15.422 74.4719 15.9589C75.0354 16.4959 75.3204 17.1422 75.3271 17.8979C75.3204 18.4149 75.1845 18.8855 74.9194 19.3098C74.6609 19.7274 74.3228 20.0622 73.9052 20.3141C73.4876 20.5593 73.0335 20.682 72.543 20.682ZM85.6282 20.6422C83.9975 20.6422 82.5922 20.3306 81.4123 19.7075C80.239 19.0778 79.3342 18.1763 78.6978 17.003C78.0681 15.823 77.7532 14.4111 77.7532 12.7672C77.7532 11.1895 78.0714 9.81074 78.7077 8.63081C79.3441 7.45089 80.2423 6.5328 81.4023 5.87655C82.5624 5.2203 83.9312 4.89218 85.5089 4.89218C86.6623 4.89218 87.7063 5.07116 88.641 5.42911C89.5756 5.78706 90.3744 6.30742 91.0373 6.99019C91.7002 7.66633 92.2106 8.4883 92.5685 9.4561C92.9265 10.4239 93.1055 11.5143 93.1055 12.7274V14.0001H79.4634V10.9774H88.0543C88.0477 10.5399 87.935 10.1554 87.7163 9.824C87.5041 9.48593 87.2158 9.22409 86.8512 9.03849C86.4933 8.84625 86.0856 8.75013 85.6282 8.75013C85.1841 8.75013 84.7764 8.84625 84.4052 9.03849C84.034 9.22409 83.7357 9.48261 83.5103 9.81405C83.2915 10.1455 83.1755 10.5333 83.1623 10.9774V14.2388C83.1623 14.7293 83.265 15.1668 83.4705 15.5513C83.676 15.9357 83.971 16.2373 84.3555 16.4561C84.7399 16.6748 85.204 16.7842 85.7475 16.7842C86.1254 16.7842 86.4701 16.7312 86.7816 16.6251C87.0998 16.5191 87.3716 16.3666 87.5969 16.1677C87.8223 15.9623 87.988 15.717 88.0941 15.432H93.1055C92.9331 16.4926 92.5255 17.414 91.8825 18.1962C91.2395 18.9717 90.3877 19.5749 89.3271 20.0058C88.2731 20.4301 87.0401 20.6422 85.6282 20.6422ZM100.874 20.5626C99.7865 20.5626 98.7855 20.2776 97.8707 19.7075C96.9626 19.1374 96.2334 18.2724 95.6832 17.1123C95.1397 15.9523 94.8679 14.4907 94.8679 12.7274C94.8679 10.8846 95.1529 9.3865 95.723 8.23309C96.2997 7.07968 97.0421 6.23451 97.9503 5.69758C98.8651 5.16064 99.8262 4.89218 100.834 4.89218C101.589 4.89218 102.252 5.02475 102.822 5.2899C103.393 5.54843 103.87 5.89644 104.254 6.33394C104.639 6.76481 104.93 7.23877 105.129 7.75581H105.209V0.000132561H110.697V20.3638H105.249V17.8581H105.129C104.917 18.3751 104.612 18.8391 104.214 19.2501C103.823 19.6545 103.346 19.976 102.783 20.2146C102.226 20.4466 101.589 20.5626 100.874 20.5626ZM102.902 16.3467C103.406 16.3467 103.837 16.2009 104.195 15.9092C104.559 15.6109 104.838 15.1933 105.03 14.6564C105.229 14.1128 105.328 13.4698 105.328 12.7274C105.328 11.9717 105.229 11.3254 105.03 10.7885C104.838 10.2449 104.559 9.83063 104.195 9.54559C103.837 9.25392 103.406 9.10809 102.902 9.10809C102.398 9.10809 101.967 9.25392 101.609 9.54559C101.258 9.83063 100.986 10.2449 100.794 10.7885C100.608 11.3254 100.516 11.9717 100.516 12.7274C100.516 13.4831 100.608 14.1327 100.794 14.6763C100.986 15.2132 101.258 15.6275 101.609 15.9192C101.967 16.2042 102.398 16.3467 102.902 16.3467ZM123.295 13.682V5.09104H128.784V20.3638H123.574V17.4604H123.415C123.083 18.4348 122.503 19.1971 121.675 19.7473C120.846 20.2909 119.862 20.5626 118.722 20.5626C117.654 20.5626 116.72 20.3174 115.918 19.8268C115.122 19.3363 114.502 18.6602 114.058 17.7984C113.621 16.9367 113.399 15.949 113.392 14.8354V5.09104H118.881V13.682C118.887 14.4376 119.08 15.0309 119.457 15.4618C119.842 15.8927 120.379 16.1081 121.068 16.1081C121.526 16.1081 121.92 16.012 122.251 15.8197C122.589 15.6209 122.848 15.3425 123.027 14.9845C123.213 14.6199 123.302 14.1857 123.295 13.682Z" fill="#1E1E1E"/>
</svg>
