<svg width="57" height="57" viewBox="0 0 57 57" fill="none" xmlns="http://www.w3.org/2000/svg">
<circle cx="28.358" cy="28.358" r="27.858" fill="white" stroke="white"/>
<path d="M37.2268 38.3294C35.1963 35.6496 31.9791 33.9185 28.3576 33.9185C24.7361 33.9185 21.5189 35.6496 19.4884 38.3294M37.2268 38.3294C39.9729 35.8851 41.7025 32.3236 41.7025 28.3581C41.7025 20.9879 35.7278 15.0132 28.3576 15.0132C20.9874 15.0132 15.0127 20.9879 15.0127 28.3581C15.0127 32.3236 16.7423 35.8851 19.4884 38.3294M37.2268 38.3294C34.8692 40.428 31.7623 41.703 28.3576 41.703C24.9529 41.703 21.846 40.428 19.4884 38.3294M32.8059 25.0219C32.8059 27.4786 30.8143 29.4702 28.3576 29.4702C25.9009 29.4702 23.9093 27.4786 23.9093 25.0219C23.9093 22.5651 25.9009 20.5736 28.3576 20.5736C30.8143 20.5736 32.8059 22.5651 32.8059 25.0219Z" stroke="#0F172A" stroke-width="1.5" stroke-linecap="round" stroke-linejoin="round"/>
</svg>
