<svg width="301" height="265" viewBox="0 0 301 265" preserveAspectRatio="none" fill="none" xmlns="http://www.w3.org/2000/svg">
<path d="M0 29.5C0 20.0719 0 15.3579 2.92893 12.4289C5.85786 9.5 10.5719 9.5 20 9.5H301V245C301 254.428 301 259.142 298.071 262.071C295.142 265 290.428 265 281 265H20C10.5719 265 5.85786 265 2.92893 262.071C0 259.142 0 254.428 0 245V29.5Z" fill="white" fill-opacity="0.35"/>
<path d="M189.135 0.787505C190.366 0.267774 191.688 0 193.025 0H291.5C296.747 0 301 4.25329 301 9.5H168.5L189.135 0.787505Z" fill="white" fill-opacity="0.35"/>
</svg>
